<svg xmlns="http://www.w3.org/2000/svg" xmlns:xlink="http://www.w3.org/1999/xlink"><defs><symbol viewBox="0 0 21 21" id="facebook"><path d="M10.5 0C4.757 0 0 4.658 0 10.46 0 16.26 4.758 21 10.5 21c5.823 0 10.499-4.74 10.499-10.46C21.081 4.659 16.323 0 10.499 0zm2.542 9.969h-1.64v5.883H8.94V9.97H7.793V7.926h1.23V6.7c0-1.634.656-2.614 2.625-2.614h1.64v2.042h-.984c-.738 0-.82.246-.82.818v.98h1.804l-.246 2.043z" /></symbol><symbol viewBox="0 0 21 21" id="insta"><path d="M10.582 12.715a2.215 2.215 0 100-4.43 2.215 2.215 0 000 4.43z" /><path d="M10.5 0C4.757 0 0 4.758 0 10.5 0 16.324 4.758 21 10.5 21c5.823 0 10.499-4.758 10.499-10.5.082-5.742-4.676-10.5-10.5-10.5zm6.233 14.027c0 1.559-1.312 2.871-2.87 2.871H7.3a2.853 2.853 0 01-2.87-2.87V7.054c0-1.559 1.312-2.871 2.87-2.871h6.563c1.64 0 2.87 1.312 2.87 2.87v6.973z" /><path d="M13.125 5.168H7.957c-.738 0-1.395.246-1.887.82-.492.492-.82 1.149-.82 1.887v5.496c0 .738.246 1.395.82 1.887.492.492 1.149.82 1.887.82h5.168c.738 0 1.394-.246 1.886-.82.492-.492.82-1.149.82-1.887V7.793c0-.738-.246-1.395-.82-1.887-.492-.492-1.148-.738-1.886-.738zm-2.543 8.695c-1.887 0-3.445-1.558-3.445-3.445 0-1.887 1.558-3.445 3.445-3.445 1.886 0 3.445 1.558 3.445 3.445-.082 1.969-1.559 3.445-3.445 3.445zm3.445-6.07a.822.822 0 01-.82-.82c0-.41.328-.82.82-.82.41 0 .82.327.82.82 0 .492-.41.82-.82.82z" /></symbol><symbol viewBox="0 0 20 20" id="phone"><path d="M10 0C4.478 0 0 4.478 0 10s4.478 10 10 10 10-4.478 10-10S15.522 0 10 0zm6.056 13.984c-.239.674-1.186 1.235-1.943 1.398-.517.111-1.195.199-3.468-.745-2.911-1.206-4.785-4.163-4.93-4.356-.14-.192-1.177-1.565-1.177-2.986 0-1.421.722-2.113 1.012-2.41.238-.244.633-.355 1.011-.355.123 0 .233.006.332.012.291.011.437.029.63.489.238.575.82 1.996.889 2.144.07.145.141.343.042.536-.093.198-.174.285-.32.454-.146.169-.285.297-.431.478-.134.157-.286.326-.117.615.17.286.75 1.235 1.606 1.996 1.105.985 2.002 1.3 2.323 1.433.238.1.524.076.699-.11.221-.24.495-.635.772-1.026.198-.28.449-.314.711-.215.268.093 1.682.792 1.973.938.291.145.483.215.553.338.072.12.072.697-.167 1.372z" /></symbol><symbol viewBox="0 0 21 21" id="twitter"><path fill-rule="evenodd" clip-rule="evenodd" d="M10.5 0C16.3 0 21 4.7 21 10.5S16.3 21 10.5 21 0 16.3 0 10.5 4.7 0 10.5 0zm7.457 5.874a6.148 6.148 0 01-1.757.482c.63-.38 1.118-.98 1.347-1.694a6.177 6.177 0 01-1.944.744 3.06 3.06 0 00-5.213 2.79 8.675 8.675 0 01-6.306-3.2c-.265.454-.413.98-.413 1.541 0 1.06.54 1.997 1.36 2.545a3.03 3.03 0 01-1.388-.383v.039a3.066 3.066 0 002.454 3.001 3.044 3.044 0 01-1.382.052 3.056 3.056 0 002.858 2.124 6.134 6.134 0 01-3.8 1.308c-.248 0-.49-.014-.73-.042a8.662 8.662 0 004.69 1.374c5.628 0 8.707-4.662 8.707-8.704 0-.135-.003-.267-.009-.4a6.103 6.103 0 001.529-1.583l-.003.006z" /></symbol><symbol viewBox="0 0 20 20" id="viber"><path d="M10 0C4.485 0 0 4.485 0 10a9.96 9.96 0 001.515 5.292A410.547 410.547 0 00.4 19.322a.384.384 0 00.482.467l3.962-1.219A9.974 9.974 0 0010 20c5.515 0 10-4.486 10-10 0-5.515-4.485-10-10-10zm4.874 14.111c-.29.617-.71 1.129-1.318 1.453-.173.094-.378.123-.57.181-.223-.067-.436-.113-.632-.195-2.044-.848-3.924-1.942-5.415-3.617-.848-.954-1.51-2.03-2.07-3.17-.267-.54-.489-1.102-.72-1.658-.207-.509.1-1.035.421-1.418.304-.36.693-.634 1.114-.84.33-.157.655-.066.895.214.52.606.997 1.24 1.386 1.939.237.43.172.956-.257 1.248-.106.07-.202.155-.299.234-.084.07-.166.144-.225.237a.643.643 0 00-.044.57c.533 1.462 1.427 2.6 2.9 3.21.238.097.472.211.744.182.453-.052.602-.55.92-.813.31-.254.708-.257 1.044-.046.337.213.661.438.983.67.316.224.632.446.924.704.28.254.377.579.22.915zm-2.637-4.763c-.14.003-.067 0-.015-.003-.213-.003-.327-.123-.35-.322-.018-.143-.03-.286-.065-.427a1.195 1.195 0 00-.444-.696 1.175 1.175 0 00-.36-.175c-.164-.047-.333-.035-.497-.076-.178-.044-.275-.187-.249-.354a.32.32 0 01.34-.257c1.035.076 1.777.611 1.883 1.83a.775.775 0 01-.003.26c-.033.138-.129.205-.229.217.012 0 .015 0-.011.003zm-.646-2.79a3.689 3.689 0 00-1.012-.31c-.152-.026-.307-.04-.46-.061-.183-.026-.283-.143-.274-.327a.287.287 0 01.322-.284c.614.035 1.204.167 1.751.456 1.108.588 1.743 1.515 1.927 2.752.009.055.02.11.026.166.012.14.018.278.027.462-.003.032-.006.111-.027.187-.07.27-.476.301-.57.032a.767.767 0 01-.032-.257c0-.567-.123-1.131-.41-1.623a3.007 3.007 0 00-1.268-1.193zm3.427 3.825c-.214.003-.31-.175-.325-.368-.026-.38-.047-.764-.1-1.14-.277-1.992-1.865-3.638-3.845-3.992-.298-.053-.602-.067-.906-.1-.19-.02-.441-.032-.482-.269-.035-.198.131-.356.321-.368.053-.003.103 0 .155 0 2.588.073.114.006.003 0 2.673.076 4.866 1.851 5.336 4.491.08.45.109.91.144 1.369.014.193-.094.374-.302.377z" /></symbol><symbol viewBox="0 0 21 21" id="vk"><path d="M10.5 0C4.757 0 0 4.758 0 10.5 0 16.324 4.758 21 10.5 21c5.823 0 10.499-4.758 10.499-10.5.082-5.742-4.676-10.5-10.5-10.5zm4.675 15.422c-.082 0-.082 0 0 0-.82-.164-1.394-.656-1.805-1.149-.246-.246-.656-.902-1.148-.82-.656.082-.328 1.23-.574 1.723-.246.41-1.149.328-1.805.246-2.05-.246-3.117-1.313-4.02-2.543-.983-1.23-1.722-2.625-2.46-4.02-.246-.492-.574-.984-.574-1.558.328-.246.902-.164 1.394-.164.493 0 1.23-.082 1.559.082.164.082.41.656.574.984.41.82.738 1.395 1.148 2.05.165.247.493.821.82.74.329-.083.41-.903.41-1.477 0-.657 0-1.395-.163-1.723-.164-.41-.492-.41-.82-.574.246-.492.984-.574 1.804-.574.738 0 1.723-.082 1.969.41s.082 1.312.082 1.968c0 .739-.164 1.477.328 1.805.41-.082.574-.41.82-.738.492-.656.82-1.23 1.149-2.05.164-.33.328-.903.574-1.067.41-.164 1.148 0 1.722 0 .492 0 1.477-.164 1.64.246.165.328-.245 1.066-.41 1.23-.491.82-.984 1.313-1.476 1.969-.246.246-.656.738-.574 1.148 0 .329.328.575.574.82.575.493.985.903 1.395 1.477.164.246.574.657.492.985.082.902-1.969.328-2.625.574z" /></symbol><symbol viewBox="0 0 20 20" id="whatsup"><path d="M10 0C4.485 0 0 4.485 0 10a9.96 9.96 0 001.515 5.292A410.547 410.547 0 00.4 19.322a.384.384 0 00.482.467l3.962-1.219A9.974 9.974 0 0010 20c5.515 0 10-4.486 10-10 0-5.515-4.485-10-10-10zm6.266 14.164c-.254.722-1.269 1.318-2.076 1.494-.553.117-1.275.21-3.707-.795-3.112-1.29-5.115-4.448-5.27-4.655-.149-.205-1.257-1.673-1.257-3.194 0-1.52.772-2.257 1.082-2.576.254-.26.678-.38 1.082-.38.131 0 .248.006.354.012.31.015.468.032.672.523.255.614.877 2.135.95 2.29.077.155.153.368.044.573-.1.21-.187.307-.342.485-.155.182-.304.32-.459.512-.143.167-.304.348-.126.658.182.304.802 1.319 1.717 2.134 1.181 1.053 2.14 1.39 2.482 1.53.255.105.559.082.746-.117.237-.255.53-.679.827-1.097.21-.298.48-.336.76-.23.287.099 1.799.847 2.109 1 .31.154.514.23.59.362.08.134.08.748-.178 1.47z" /></symbol></defs></svg>