<svg width="21" height="21" viewBox="0 0 21 21" fill="none" xmlns="http://www.w3.org/2000/svg">
<path d="M10.5819 12.7148C11.8051 12.7148 12.7967 11.7232 12.7967 10.5C12.7967 9.27678 11.8051 8.28516 10.5819 8.28516C9.35876 8.28516 8.36719 9.27678 8.36719 10.5C8.36719 11.7232 9.35876 12.7148 10.5819 12.7148Z" fill="white"/>
<path d="M10.4995 0C4.75758 0 0 4.75781 0 10.5C0 16.3242 4.75758 21 10.4995 21C16.3234 21 20.999 16.2422 20.999 10.5C21.081 4.75781 16.3234 0 10.4995 0ZM16.7335 14.0273C16.7335 15.5859 15.4211 16.8984 13.8626 16.8984H7.30042C5.65987 16.8984 4.42947 15.5859 4.42947 14.0273V7.05469C4.42947 5.49609 5.7419 4.18359 7.30042 4.18359H13.8626C15.5031 4.18359 16.7335 5.49609 16.7335 7.05469V14.0273Z" fill="white"/>
<path d="M13.1246 5.16797H7.9569C7.21865 5.16797 6.56244 5.41406 6.07027 5.98828C5.57811 6.48047 5.25 7.13672 5.25 7.875V13.3711C5.25 14.1094 5.49608 14.7656 6.07027 15.2578C6.56244 15.75 7.21865 16.0781 7.9569 16.0781H13.1246C13.8629 16.0781 14.5191 15.832 15.0112 15.2578C15.5034 14.7656 15.8315 14.1094 15.8315 13.3711V7.79297C15.8315 7.05469 15.5854 6.39844 15.0112 5.90625C14.5191 5.41406 13.8629 5.16797 13.1246 5.16797ZM10.5818 13.8633C8.69514 13.8633 7.13663 12.3047 7.13663 10.418C7.13663 8.53125 8.69514 6.97266 10.5818 6.97266C12.4684 6.97266 14.0269 8.53125 14.0269 10.418C13.9449 12.3867 12.4684 13.8633 10.5818 13.8633ZM14.0269 7.79297C13.6168 7.79297 13.2066 7.46484 13.2066 6.97266C13.2066 6.5625 13.5347 6.15234 14.0269 6.15234C14.437 6.15234 14.8472 6.48047 14.8472 6.97266C14.8472 7.46484 14.437 7.79297 14.0269 7.79297Z" fill="white"/>
</svg>
