<svg width="20" height="20" viewBox="0 0 20 20" fill="none" xmlns="http://www.w3.org/2000/svg">
<path d="M10 -0.00012207C4.47767 -0.00012207 0 4.47755 0 9.99988C0 15.5222 4.47767 19.9999 10 19.9999C15.5223 19.9999 20 15.5222 20 9.99988C20 4.47755 15.5223 -0.00012207 10 -0.00012207ZM16.0563 13.9843C15.8175 14.6581 14.8699 15.2193 14.1126 15.3824C13.5961 15.4931 12.9184 15.5805 10.6447 14.6368C7.73398 13.4309 5.86019 10.4737 5.71456 10.2814C5.57476 10.0892 4.53786 8.71638 4.53786 7.29502C4.53786 5.87366 5.26019 5.1824 5.54951 4.88531C5.78835 4.64065 6.18252 4.52997 6.56116 4.52997C6.6835 4.52997 6.79417 4.5358 6.8932 4.54163C7.18447 4.55328 7.3301 4.57075 7.52233 5.03095C7.76117 5.6057 8.34369 7.02706 8.41165 7.17463C8.48155 7.32027 8.5534 7.51832 8.45437 7.71056C8.36117 7.90862 8.27961 7.99599 8.13398 8.16493C7.98835 8.33386 7.84854 8.46201 7.70291 8.6426C7.56893 8.79988 7.41748 8.96881 7.58641 9.25813C7.75534 9.54357 8.33592 10.4931 9.19223 11.2542C10.2971 12.2387 11.1942 12.5533 11.5146 12.6873C11.7534 12.7863 12.0388 12.763 12.2136 12.5766C12.435 12.3377 12.7087 11.9416 12.9864 11.5513C13.1845 11.2717 13.435 11.2368 13.6971 11.3358C13.965 11.429 15.3786 12.128 15.6699 12.2737C15.9612 12.4193 16.1534 12.4892 16.2233 12.6115C16.2951 12.7319 16.2951 13.3086 16.0563 13.9843Z" fill="white"/>
</svg>
