<svg width="21" height="21" viewBox="0 0 21 21" fill="none" xmlns="http://www.w3.org/2000/svg">
<path fill-rule="evenodd" clip-rule="evenodd" d="M10.5 0C16.2994 0 21 4.70063 21 10.5C21 16.2994 16.2994 21 10.5 21C4.70063 21 0 16.2994 0 10.5C0 4.70063 4.70063 0 10.5 0ZM17.9571 5.87372C17.4091 6.11605 16.8198 6.28127 16.2002 6.35563C16.8308 5.97561 17.3183 5.37529 17.5468 4.66208C16.9548 5.0118 16.2994 5.2679 15.6027 5.40559C15.0437 4.81078 14.2506 4.43902 13.3694 4.43902C11.6786 4.43902 10.31 5.81039 10.31 7.49843C10.31 7.738 10.3375 7.97207 10.3899 8.19512C7.8454 8.06845 5.59284 6.84854 4.08379 4.99528C3.81943 5.44965 3.67073 5.97561 3.67073 6.53737C3.67073 7.59756 4.21046 8.53383 5.03108 9.08183C4.52714 9.0653 4.05625 8.93037 3.64319 8.69906C3.64319 8.71282 3.64319 8.72384 3.64319 8.73761C3.64319 10.2191 4.69788 11.4555 6.09677 11.7392C5.84068 11.8108 5.57081 11.8466 5.28993 11.8466C5.09166 11.8466 4.90165 11.8273 4.7144 11.7915C5.10267 13.0059 6.23171 13.8926 7.57278 13.9146C6.52636 14.7352 5.20732 15.2227 3.77262 15.2227C3.52478 15.2227 3.28245 15.2089 3.04288 15.1814C4.39496 16.0488 6.0059 16.5555 7.73249 16.5555C13.3611 16.5555 16.4398 11.8934 16.4398 7.8509C16.4398 7.71597 16.4371 7.58379 16.4315 7.45161C17.0291 7.02478 17.5496 6.48505 17.9599 5.86821L17.9571 5.87372Z" fill="white"/>
</svg>
