<svg width="20" height="20" viewBox="0 0 20 20" fill="none" xmlns="http://www.w3.org/2000/svg">
<path d="M10 -0.00012207C4.48538 -0.00012207 0 4.48526 0 9.99988C0 11.88 0.523392 13.7075 1.51462 15.2923C1.11988 16.6753 0.406433 19.2952 0.400585 19.3215C0.362573 19.456 0.403509 19.6022 0.502924 19.6987C0.605263 19.7952 0.751462 19.8332 0.883041 19.7894L4.84503 18.5701C6.39766 19.5057 8.17544 19.9999 10 19.9999C15.5146 19.9999 20 15.5145 20 9.99988C20 4.48526 15.5146 -0.00012207 10 -0.00012207ZM14.8743 14.111C14.5848 14.7279 14.1637 15.2396 13.5556 15.5642C13.383 15.6578 13.1784 15.687 12.9854 15.7455C12.7632 15.6782 12.5497 15.6315 12.3538 15.5496C10.3099 14.7016 8.42982 13.6081 6.9386 11.9326C6.09064 10.9794 5.42982 9.90339 4.86842 8.76303C4.60234 8.2221 4.38012 7.6607 4.14912 7.10514C3.94152 6.59637 4.24854 6.07005 4.57018 5.68701C4.87427 5.32736 5.26316 5.05251 5.68421 4.84783C6.01462 4.68994 6.33918 4.78058 6.57895 5.06128C7.09941 5.66654 7.57602 6.30105 7.96491 6.99988C8.20175 7.4297 8.13743 7.95602 7.7076 8.24841C7.60234 8.31859 7.50585 8.40339 7.40936 8.48233C7.32456 8.55251 7.24269 8.62561 7.18421 8.71918C7.07602 8.89461 7.07018 9.09929 7.14035 9.28935C7.67251 10.7513 8.56725 11.8888 10.0409 12.4999C10.2778 12.5964 10.5117 12.7104 10.7836 12.6812C11.2368 12.6285 11.386 12.1315 11.7047 11.8683C12.0146 11.6139 12.4123 11.611 12.7485 11.8215C13.0848 12.035 13.4094 12.2601 13.731 12.4911C14.0468 12.7163 14.3626 12.9385 14.655 13.1958C14.9357 13.4502 15.0322 13.7747 14.8743 14.111ZM12.2368 9.34783C12.0965 9.35075 12.1696 9.34783 12.2222 9.34491C12.0088 9.34198 11.8947 9.2221 11.8713 9.02327C11.8538 8.87999 11.8421 8.73672 11.807 8.59637C11.7398 8.32152 11.5936 8.06713 11.3626 7.90046C11.2544 7.82152 11.1316 7.76304 11.0029 7.72502C10.8392 7.67824 10.6696 7.68994 10.5058 7.649C10.3275 7.60514 10.231 7.46187 10.2573 7.2952C10.2836 7.14315 10.4298 7.02619 10.5965 7.03789C11.6316 7.11391 12.3743 7.649 12.4795 8.8683C12.4883 8.95309 12.4971 9.04666 12.4766 9.12853C12.4444 9.26596 12.348 9.33321 12.2485 9.34491C12.2602 9.34491 12.2632 9.34491 12.2368 9.34783ZM11.5906 6.55836C11.2719 6.40339 10.9298 6.3069 10.5789 6.24842C10.4269 6.2221 10.2719 6.20748 10.1199 6.18701C9.93567 6.1607 9.83626 6.04374 9.84503 5.85953C9.8538 5.68701 9.97953 5.56421 10.1667 5.5759C10.7807 5.61099 11.3713 5.74257 11.9181 6.03204C13.0263 6.61976 13.6608 7.54666 13.845 8.7835C13.8538 8.83906 13.8655 8.89461 13.8713 8.95017C13.883 9.09052 13.8889 9.22795 13.8977 9.41216C13.8947 9.44432 13.8918 9.52327 13.8713 9.59929C13.8012 9.8683 13.3947 9.90046 13.3012 9.63146C13.2719 9.54958 13.269 9.45894 13.269 9.37415C13.269 8.8069 13.1462 8.24257 12.8596 7.75134C12.5643 7.23964 12.117 6.81567 11.5906 6.55836ZM15.0175 10.3829C14.8041 10.3858 14.7076 10.2075 14.693 10.0145C14.6667 9.63438 14.6462 9.25134 14.5936 8.87415C14.3158 6.88292 12.7281 5.23672 10.7485 4.88292C10.4503 4.83029 10.1462 4.81567 9.8421 4.7835C9.65205 4.76304 9.40058 4.75134 9.35965 4.5145C9.32456 4.31567 9.49123 4.15777 9.68129 4.14608C9.73392 4.14315 9.78362 4.14608 9.83626 4.14608C12.424 4.21918 9.95029 4.15192 9.83918 4.14608C12.5117 4.2221 14.7047 5.99695 15.1754 8.6373C15.2544 9.0876 15.2836 9.54666 15.3187 10.0057C15.3333 10.1987 15.2251 10.38 15.0175 10.3829Z" fill="#D536FD"/>
</svg>
