<svg width="21" height="21" viewBox="0 0 21 21" fill="none" xmlns="http://www.w3.org/2000/svg">
<path d="M10.4995 0C4.75758 0 0 4.75781 0 10.5C0 16.3242 4.75758 21 10.4995 21C16.3234 21 20.999 16.2422 20.999 10.5C21.081 4.75781 16.3234 0 10.4995 0ZM15.175 15.4219C15.093 15.4219 15.093 15.4219 15.175 15.4219C14.3548 15.2578 13.7806 14.7656 13.3704 14.2734C13.1243 14.0273 12.7142 13.3711 12.222 13.4531C11.5658 13.5352 11.8939 14.6836 11.6479 15.1758C11.4018 15.5859 10.4995 15.5039 9.84326 15.4219C7.79258 15.1758 6.72623 14.1094 5.82393 12.8789C4.8396 11.6484 4.10136 10.2539 3.36311 8.85938C3.11703 8.36719 2.78892 7.875 2.78892 7.30078C3.11703 7.05469 3.69122 7.13672 4.18339 7.13672C4.67555 7.13672 5.41379 7.05469 5.7419 7.21875C5.90596 7.30078 6.15204 7.875 6.31609 8.20312C6.72623 9.02344 7.05434 9.59766 7.46447 10.2539C7.62853 10.5 7.95664 11.0742 8.28474 10.9922C8.61285 10.9102 8.69488 10.0898 8.69488 9.51562C8.69488 8.85938 8.69488 8.12109 8.53082 7.79297C8.36677 7.38281 8.03866 7.38281 7.71055 7.21875C7.95663 6.72656 8.69488 6.64453 9.51515 6.64453C10.2534 6.64453 11.2377 6.5625 11.4838 7.05469C11.7299 7.54688 11.5658 8.36719 11.5658 9.02344C11.5658 9.76172 11.4018 10.5 11.8939 10.8281C12.3041 10.7461 12.4681 10.418 12.7142 10.0898C13.2064 9.43359 13.5345 8.85938 13.8626 8.03906C14.0266 7.71094 14.1907 7.13672 14.4368 6.97266C14.8469 6.80859 15.5852 6.97266 16.1594 6.97266C16.6515 6.97266 17.6358 6.80859 17.7999 7.21875C17.964 7.54688 17.5538 8.28516 17.3898 8.44922C16.8976 9.26953 16.4054 9.76172 15.9133 10.418C15.6672 10.6641 15.2571 11.1562 15.3391 11.5664C15.3391 11.8945 15.6672 12.1406 15.9133 12.3867C16.4875 12.8789 16.8976 13.2891 17.3077 13.8633C17.4718 14.1094 17.8819 14.5195 17.7999 14.8477C17.8819 15.75 15.8312 15.1758 15.175 15.4219Z" fill="white"/>
</svg>
