<svg width="20" height="20" viewBox="0 0 20 20" fill="none" xmlns="http://www.w3.org/2000/svg">
<path d="M10 -0.00012207C4.48538 -0.00012207 0 4.48526 0 9.99988C0 11.88 0.523392 13.7075 1.51462 15.2923C1.11988 16.6753 0.406433 19.2952 0.400585 19.3215C0.362573 19.456 0.403509 19.6022 0.502924 19.6987C0.605263 19.7952 0.751462 19.8332 0.883041 19.7894L4.84503 18.5701C6.39766 19.5057 8.17544 19.9999 10 19.9999C15.5146 19.9999 20 15.5145 20 9.99988C20 4.48526 15.5146 -0.00012207 10 -0.00012207ZM16.2661 14.1636C16.0117 14.8858 14.9971 15.4823 14.1901 15.6578C13.6374 15.7747 12.9152 15.8683 10.4825 14.8625C7.37134 13.573 5.36842 10.4151 5.21345 10.2075C5.06433 10.0028 3.95614 8.53497 3.95614 7.0145C3.95614 5.49403 4.72807 4.75719 5.03801 4.43847C5.2924 4.17824 5.71637 4.05836 6.11988 4.05836C6.25146 4.05836 6.36842 4.06421 6.47368 4.07005C6.78363 4.08467 6.94152 4.10222 7.1462 4.59344C7.40058 5.20748 8.02339 6.72795 8.09649 6.88292C8.17251 7.03789 8.24854 7.25134 8.14035 7.45602C8.04094 7.66654 7.95322 7.76304 7.79825 7.9414C7.64327 8.12268 7.49415 8.26011 7.33918 8.45309C7.19591 8.61976 7.03509 8.80105 7.21345 9.11099C7.39474 9.41508 8.01462 10.4297 8.92982 11.2455C10.1111 12.2981 11.0702 12.6344 11.4123 12.7747C11.6667 12.88 11.9708 12.8566 12.1579 12.6578C12.3947 12.4034 12.6871 11.9794 12.9854 11.5613C13.1959 11.263 13.4649 11.225 13.7456 11.3303C14.0322 11.4297 15.5439 12.1782 15.8538 12.3303C16.1637 12.4853 16.3684 12.5613 16.4444 12.6929C16.5234 12.8274 16.5234 13.4414 16.2661 14.1636Z" fill="#47D25C"/>
</svg>
